<svg id="visual" viewBox="0 0 900 600" width="900" height="600" xmlns="http://www.w3.org/2000/svg" xmlns:xlink="http://www.w3.org/1999/xlink" version="1.1"><rect x="0" y="0" width="900" height="600" fill="#291a3a"></rect><path d="M0 331L21.5 321.5C43 312 86 293 128.8 280.3C171.7 267.7 214.3 261.3 257.2 262.5C300 263.7 343 272.3 385.8 289.3C428.7 306.3 471.3 331.7 514.2 330.3C557 329 600 301 642.8 296.3C685.7 291.7 728.3 310.3 771.2 328.2C814 346 857 363 878.5 371.5L900 380L900 601L878.5 601C857 601 814 601 771.2 601C728.3 601 685.7 601 642.8 601C600 601 557 601 514.2 601C471.3 601 428.7 601 385.8 601C343 601 300 601 257.2 601C214.3 601 171.7 601 128.8 601C86 601 43 601 21.5 601L0 601Z" fill="#af93cf"></path><path d="M0 332L21.5 340.5C43 349 86 366 128.8 377.8C171.7 389.7 214.3 396.3 257.2 397C300 397.7 343 392.3 385.8 396.7C428.7 401 471.3 415 514.2 406.2C557 397.3 600 365.7 642.8 365.7C685.7 365.7 728.3 397.3 771.2 399.5C814 401.7 857 374.3 878.5 360.7L900 347L900 601L878.5 601C857 601 814 601 771.2 601C728.3 601 685.7 601 642.8 601C600 601 557 601 514.2 601C471.3 601 428.7 601 385.8 601C343 601 300 601 257.2 601C214.3 601 171.7 601 128.8 601C86 601 43 601 21.5 601L0 601Z" fill="#9f81c2"></path><path d="M0 405L21.5 406C43 407 86 409 128.8 419.5C171.7 430 214.3 449 257.2 447.3C300 445.7 343 423.3 385.8 413.2C428.7 403 471.3 405 514.2 408C557 411 600 415 642.8 411C685.7 407 728.3 395 771.2 387.3C814 379.7 857 376.3 878.5 374.7L900 373L900 601L878.5 601C857 601 814 601 771.2 601C728.3 601 685.7 601 642.8 601C600 601 557 601 514.2 601C471.3 601 428.7 601 385.8 601C343 601 300 601 257.2 601C214.3 601 171.7 601 128.8 601C86 601 43 601 21.5 601L0 601Z" fill="#906fb6"></path><path d="M0 519L21.5 518.7C43 518.3 86 517.7 128.8 504.2C171.7 490.7 214.3 464.3 257.2 453.2C300 442 343 446 385.8 449C428.7 452 471.3 454 514.2 451.8C557 449.7 600 443.3 642.8 453.2C685.7 463 728.3 489 771.2 499.3C814 509.7 857 504.3 878.5 501.7L900 499L900 601L878.5 601C857 601 814 601 771.2 601C728.3 601 685.7 601 642.8 601C600 601 557 601 514.2 601C471.3 601 428.7 601 385.8 601C343 601 300 601 257.2 601C214.3 601 171.7 601 128.8 601C86 601 43 601 21.5 601L0 601Z" fill="#815da9"></path><path d="M0 527L21.5 527.7C43 528.3 86 529.7 128.8 534.2C171.7 538.7 214.3 546.3 257.2 543.5C300 540.7 343 527.3 385.8 520.8C428.7 514.3 471.3 514.7 514.2 521.3C557 528 600 541 642.8 543.7C685.7 546.3 728.3 538.7 771.2 539.7C814 540.7 857 550.3 878.5 555.2L900 560L900 601L878.5 601C857 601 814 601 771.2 601C728.3 601 685.7 601 642.8 601C600 601 557 601 514.2 601C471.3 601 428.7 601 385.8 601C343 601 300 601 257.2 601C214.3 601 171.7 601 128.8 601C86 601 43 601 21.5 601L0 601Z" fill="#724c9d"></path></svg>